<svg width="54" height="54" viewBox="0 0 54 54" fill="none" xmlns="http://www.w3.org/2000/svg">
<path d="M54 27C54 41.9117 41.9117 54 27 54C12.0883 54 0 41.9117 0 27C0 12.0883 12.0883 0 27 0C41.9117 0 54 12.0883 54 27Z" fill="white" fill-opacity="0.8"/>
<path d="M54 27C54 41.9117 41.9117 54 27 54C12.0883 54 0 41.9117 0 27C0 12.0883 12.0883 0 27 0C41.9117 0 54 12.0883 54 27Z" fill="white" fill-opacity="0.8"/>
<g clip-path="url(#clip0_314_3313)">
<path d="M15.6378 41.4208L15.6815 41.0713L15.7339 41.4994C15.8475 41.5693 15.9785 41.6043 16.1096 41.6305L16.1882 41.0713L16.2668 41.6654C16.328 41.6654 16.3804 41.7004 16.4416 41.7004H16.6163L16.7037 41.0713L16.791 41.7004H17.1318L17.2191 41.0713L17.3065 41.7004H17.6472L17.7346 41.0713L17.822 41.7004H18.1627L18.2501 41.0713L18.3375 41.7004H18.6782L18.7656 41.0713L18.8529 41.7004H19.1937L19.281 41.0713L19.3684 41.7004H19.7091L19.7965 41.0713L19.8839 41.7004H20.2246L20.312 41.0713L20.3993 41.7004H20.7401L20.8274 41.0713L20.9148 41.7004H21.2555L21.3429 41.0713L21.4303 41.7004H21.771L21.8584 41.0713L21.9458 41.7004H22.2865L22.3739 41.0713L22.4612 41.7004H22.802L22.8893 41.0713L22.9767 41.7004H23.3174L23.4048 41.0713L23.4922 41.7004H23.8329L23.9203 41.0713L24.0076 41.7004H24.3484L24.4357 41.0713L24.5231 41.7004H24.8638L24.9512 41.0713L25.0386 41.7004H25.3793L25.4667 41.0713L25.5541 41.7004H25.8948L25.9822 41.0713L26.0695 41.7004H26.4103L26.4976 41.0713L26.585 41.7004H26.9257L27.0131 41.0713L27.1005 41.7004H27.4412L27.5286 41.0713L27.6159 41.7004H27.9567L28.044 41.0713L28.1314 41.7004H28.4721L28.5595 41.0713L28.6469 41.7004H28.9876L29.075 41.0713L29.1624 41.7004H29.5031L29.5905 41.0713L29.6778 41.7004H30.0186L30.1059 41.0713L30.1933 41.7004H30.534L30.6214 41.0713L30.7088 41.7004H31.0495L31.1369 41.0713L31.2242 41.7004H31.565L31.6523 41.0713L31.7397 41.7004H32.0804L32.1678 41.0713L32.2552 41.7004H32.5959L32.6833 41.0713L32.7707 41.7004H33.1114L33.1988 41.0713L33.2861 41.7004H33.6269L33.7142 41.0713L33.8016 41.7004H34.1423L34.2297 41.0713L34.3171 41.7004H34.6578L34.7452 41.0713L34.8325 41.7004H35.1733L35.2606 41.0713L35.348 41.7004H35.6887L35.7761 41.0713L35.8635 41.7004H36.2042L36.2916 41.0713L36.379 41.7004H36.7197L36.8071 41.0713L36.8944 41.7004H37.2352L37.3225 41.0713L37.4099 41.7004H37.7506L37.838 41.0713L37.9166 41.6916C38.0389 41.6916 38.1525 41.648 38.2661 41.613L38.336 41.0713L38.4059 41.5868C38.5632 41.5256 38.6942 41.4295 38.8165 41.316L38.8515 41.0713L38.8777 41.2723C39.1747 40.9752 39.3582 40.5646 39.3058 40.1103L36.7022 15.6647C36.6323 15.0269 36.0994 14.5464 35.4616 14.5464H18.8529C18.2151 14.5464 17.6822 15.0269 17.6123 15.6647L15 40.1103C14.9388 40.652 15.2097 41.1325 15.629 41.4208H15.6378Z" fill="#FFCC43"/>
<path d="M15.2883 37.4806C15.2883 37.4806 16.3629 38.4678 26.9956 38.4678C37.6283 38.4678 38.7029 37.4806 38.7029 37.4806L36.7109 18.7664C36.7109 18.7664 34.5879 19.3605 26.9956 19.3605C18.0579 19.3605 17.2803 18.7664 17.2803 18.7664L15.2883 37.4806Z" fill="#EAEAEA"/>
<path opacity="0.3" d="M26.9956 37.7251C17.7346 37.7251 15.7251 36.9824 15.3582 36.7815L15.2883 37.4717C15.2883 37.4717 16.3629 38.459 26.9956 38.459C37.6283 38.459 38.7029 37.4717 38.7029 37.4717L38.633 36.7815C38.2836 36.9824 36.3353 37.7163 26.9956 37.7163V37.7251Z" fill="#535454"/>
<path opacity="0.2" d="M26.9956 19.9808C33.5919 19.9808 36.1518 19.5527 36.7809 19.4217L36.711 18.7751C36.711 18.7751 34.5879 19.3692 26.9956 19.3692C18.0579 19.3692 17.2803 18.7751 17.2803 18.7751L17.2104 19.4479C17.7172 19.6051 19.7004 19.9808 26.9956 19.9808Z" fill="#191919"/>
<path d="M36.379 15.6297H17.6123L16.9483 13.6028C16.8522 13.3057 17.0706 12.9912 17.3852 12.9912H36.3615C36.6585 12.9912 36.877 13.2621 36.8158 13.5504L36.379 15.621V15.6297Z" fill="#B9B9B9"/>
<path opacity="0.2" d="M16.9483 13.6116L17.2541 14.5552H36.6061L36.8158 13.5592C36.877 13.2708 36.6585 13 36.3615 13H17.3939C17.0794 13 16.8522 13.3058 16.957 13.6116H16.9483Z" fill="#E3E3E3"/>
<path opacity="0.5" d="M17.6123 15.6298H36.379L36.4489 15.324H17.5075L17.6123 15.6298Z" fill="#787878"/>
<path opacity="0.3" d="M36.3964 15.5599C31.53 15.324 27.2577 14.5289 24.4445 13H17.3939C17.0794 13 16.8522 13.3058 16.957 13.6116L17.621 15.6385H36.3877L36.4052 15.5686L36.3964 15.5599Z" fill="#525252"/>
<g opacity="0.1">
<path d="M36.4139 41.7005L36.4314 41.5957C36.3091 41.5957 36.1867 41.5957 36.0644 41.5957L36.0819 41.7005H36.4226H36.4139Z" fill="#535454"/>
<path d="M34.8937 41.7005L34.9112 41.5694C34.7801 41.5694 34.6578 41.5519 34.5355 41.5432L34.553 41.7005H34.8937Z" fill="#535454"/>
<path d="M36.9294 41.7005L36.9468 41.5957C36.8245 41.5957 36.7022 41.5957 36.5799 41.5957L36.5974 41.7005H36.9381H36.9294Z" fill="#535454"/>
<path d="M28.376 41.0715L28.4634 41.7005H28.8041L28.8915 41.0715L28.9789 41.7005H29.3196L29.407 41.0715L29.4943 41.7005H29.8351L29.9225 41.0715L30.0098 41.7005H30.3506L30.4379 41.0715L30.5253 41.7005H30.866L30.9534 41.0715L31.0408 41.7005H31.3815L31.4601 41.1064C22.0069 39.0008 17.8569 30.5261 16.9658 21.7544L15 40.1104C14.9388 40.6521 15.2097 41.1326 15.629 41.4209L15.6727 41.0715L15.7251 41.4996C15.8387 41.5695 15.9698 41.6044 16.1008 41.6306L16.1795 41.0715L16.2581 41.6656C16.3192 41.6656 16.3717 41.7005 16.4328 41.7005H16.6076L16.6949 41.0715L16.7823 41.7005H17.123L17.2104 41.0715L17.2978 41.7005H17.6385L17.7259 41.0715L17.8132 41.7005H18.154L18.2413 41.0715L18.3287 41.7005H18.6695L18.7568 41.0715L18.8442 41.7005H19.1849L19.2723 41.0715L19.3597 41.7005H19.7004L19.7878 41.0715L19.8751 41.7005H20.2159L20.3032 41.0715L20.3906 41.7005H20.7313L20.8187 41.0715L20.9061 41.7005H21.2468L21.3342 41.0715L21.4215 41.7005H21.7623L21.8496 41.0715L21.937 41.7005H22.2778L22.3651 41.0715L22.4525 41.7005H22.7932L22.8806 41.0715L22.968 41.7005H23.3087L23.3961 41.0715L23.4834 41.7005H23.8242L23.9115 41.0715L23.9989 41.7005H24.3396L24.427 41.0715L24.5144 41.7005H24.8551L24.9425 41.0715L25.0298 41.7005H25.3706L25.4579 41.0715L25.5453 41.7005H25.8861L25.9734 41.0715L26.0608 41.7005H26.4015L26.4889 41.0715L26.5763 41.7005H26.917L27.0044 41.0715L27.0917 41.7005H27.4325L27.5198 41.0715L27.6072 41.7005H27.9479L28.0353 41.0715L28.1227 41.7005H28.4634L28.5508 41.0715H28.376Z" fill="#7B7B7B"/>
<path d="M37.9516 41.622V41.6045C37.8293 41.6045 37.7069 41.6045 37.5846 41.6045V41.7006C37.7244 41.7006 37.838 41.6569 37.9516 41.622Z" fill="#535454"/>
<path d="M37.4361 41.7005L37.4536 41.5957C37.3313 41.5957 37.2177 41.5957 37.0866 41.5957L37.1041 41.7005H37.4448H37.4361Z" fill="#535454"/>
<path d="M35.0597 41.7004H35.4004V41.5956C35.2869 41.5956 35.1646 41.5869 35.0422 41.5781L35.0597 41.7004Z" fill="#535454"/>
<path d="M32.3513 41.7005L32.4037 41.3073C32.2465 41.2811 32.0979 41.2549 31.9494 41.22L32.0106 41.7005H32.3513Z" fill="#535454"/>
<path d="M31.8445 41.7005L31.9057 41.2113C31.7397 41.1763 31.5824 41.1414 31.4252 41.1064L31.5038 41.7005H31.8445Z" fill="#535454"/>
<path d="M35.9246 41.6045C35.8023 41.6045 35.68 41.6045 35.5577 41.6045V41.7093H35.9072L35.9246 41.6045Z" fill="#535454"/>
<path d="M32.8668 41.7006L32.9104 41.3773C32.7619 41.3598 32.6134 41.3424 32.4736 41.3162L32.526 41.7006H32.8668Z" fill="#535454"/>
<path d="M33.8802 41.7004L33.9064 41.4995C33.7754 41.4908 33.6443 41.4733 33.5045 41.4558L33.5395 41.6917H33.8802V41.7004Z" fill="#535454"/>
<path d="M33.3735 41.7005L33.4084 41.4471C33.2687 41.4297 33.1289 41.4122 32.9891 41.386L33.0328 41.7005H33.3735Z" fill="#535454"/>
<path d="M34.387 41.7005L34.4044 41.5345C34.2734 41.5258 34.1423 41.517 34.02 41.5083L34.0462 41.7005H34.387Z" fill="#535454"/>
</g>
<path opacity="0.4" d="M20.2333 16.8616C20.6702 16.8791 35.9159 16.2675 36.3964 17.5081C36.8769 18.7487 37.4973 39.9355 37.4973 39.9355C37.4973 39.9355 35.7324 23.5802 32.194 20.4786C28.6556 17.3771 20.2333 16.8703 20.2333 16.8703V16.8616Z" fill="white"/>
<path opacity="0.2" d="M35.5664 41.7005H35.9072L35.9945 41.0714L36.0819 41.7005H36.4226L36.51 41.0714L36.5974 41.7005H36.9381L37.0255 41.0714L37.1128 41.7005H37.4536L37.5409 41.0714L37.6196 41.6918C37.7419 41.6918 37.8555 41.6481 37.969 41.6131L38.0389 41.0714L38.1088 41.5869C38.2661 41.5258 38.3972 41.4296 38.5195 41.3161L38.5544 41.0714L38.5806 41.2724C38.8777 40.9753 39.0611 40.5647 39.0087 40.1104L38.7029 37.2185C31.7135 40.8967 21.0546 39.9881 15.2359 38.1446L15 40.1104C14.9388 40.6521 15.2097 41.1326 15.629 41.4209L15.6727 41.0714L15.7251 41.4995C15.8387 41.5694 15.9698 41.6044 16.1008 41.6306L16.1795 41.0714L16.2581 41.6655C16.3192 41.6655 16.3717 41.7005 16.4328 41.7005H16.6076L16.6949 41.0714L16.7823 41.7005H17.123L17.2104 41.0714L17.2978 41.7005H17.6385L17.7259 41.0714L17.8132 41.7005H18.154L18.2413 41.0714L18.3287 41.7005H18.6695L18.7568 41.0714L18.8442 41.7005H19.1849L19.2723 41.0714L19.3597 41.7005H19.7004L19.7878 41.0714L19.8751 41.7005H20.2159L20.3032 41.0714L20.3906 41.7005H20.7313L20.8187 41.0714L20.9061 41.7005H21.2468L21.3342 41.0714L21.4215 41.7005H21.7623L21.8496 41.0714L21.937 41.7005H22.2778L22.3651 41.0714L22.4525 41.7005H22.7932L22.8806 41.0714L22.968 41.7005H23.3087L23.3961 41.0714L23.4834 41.7005H23.8242L23.9115 41.0714L23.9989 41.7005H24.3396L24.427 41.0714L24.5144 41.7005H24.8551L24.9425 41.0714L25.0298 41.7005H25.3706L25.4579 41.0714L25.5453 41.7005H25.8861L25.9734 41.0714L26.0608 41.7005H26.4015L26.4889 41.0714L26.5763 41.7005H26.917L27.0044 41.0714L27.0917 41.7005H27.4325L27.5198 41.0714L27.6072 41.7005H27.9479L28.0353 41.0714L28.1227 41.7005H28.4634L28.5508 41.0714L28.6381 41.7005H28.9789L29.0662 41.0714L29.1536 41.7005H29.4943L29.5817 41.0714L29.6691 41.7005H30.0098L30.0972 41.0714L30.1846 41.7005H30.5253L30.6127 41.0714L30.7 41.7005H31.0408L31.1281 41.0714L31.2155 41.7005H31.5562L31.6436 41.0714L31.731 41.7005H32.0717L32.1591 41.0714L32.2464 41.7005H32.5872L32.6745 41.0714L32.7619 41.7005H33.1026L33.19 41.0714L33.2774 41.7005H33.6181L33.7055 41.0714L33.7929 41.7005H34.1336L34.221 41.0714L34.3083 41.7005H34.6491L34.7364 41.0714L34.8238 41.7005H35.1645L35.2519 41.0714L35.3393 41.7005H35.68L35.7674 41.0714L35.8547 41.7005H35.5664Z" fill="#A0782C"/>
<path opacity="0.3" d="M26.8559 41.0713L26.9432 41.7003H27.284L27.3713 41.0713L27.4587 41.7003H27.7994L27.8868 41.0713L27.9742 41.7003H28.3149L28.4023 41.0713L28.4896 41.7003H28.8304L28.9177 41.0713L29.0051 41.7003H29.3458L29.4332 41.0713L29.5206 41.7003H29.8613L29.9487 41.0713L30.036 41.7003H30.3768L30.4642 41.0713L30.5515 41.7003H30.8923L30.9796 41.0713L31.067 41.7003H31.4077L31.4951 41.0713L31.5825 41.7003H31.9232L32.0106 41.0713L32.0979 41.7003H32.4387L32.526 41.0713L32.6134 41.7003H32.9541L33.0415 41.0713L33.1289 41.7003H33.4696L33.557 41.0713L33.6443 41.7003H33.9851L34.0725 41.0713L34.1598 41.7003H34.5006L34.5879 41.0713L34.6753 41.7003H35.016L35.1034 41.0713L35.1908 41.7003H35.5315L35.6189 41.0713L35.7062 41.7003H36.047L36.1343 41.0713L36.2217 41.7003H36.5624L36.6498 41.0713L36.7372 41.7003H37.0779L37.1653 41.0713L37.2526 41.7003H37.5934L37.6808 41.0713L37.7594 41.6916C37.8817 41.6916 37.9953 41.6479 38.1089 41.6129L38.1788 41.0713L38.2486 41.5867C38.4059 41.5256 38.537 41.4295 38.6593 41.3159L38.6942 41.0713L38.7204 41.2722C39.0175 40.9752 39.201 40.5645 39.1485 40.1102L38.9214 38.0046C34.518 39.5074 24.0513 42.3294 15.3582 38.8608C15.3407 38.8608 15.3145 38.8434 15.2971 38.8346L15.166 40.1015C15.1049 40.6432 15.3757 41.1237 15.7951 41.412L15.8387 41.0625L15.8912 41.4906C16.0047 41.5605 16.1358 41.5955 16.2668 41.6217L16.3455 41.0625L16.4241 41.6566C16.4853 41.6566 16.5377 41.6916 16.5988 41.6916H16.7736L16.8609 41.0625L16.9483 41.6916H17.2891L17.3764 41.0625L17.4638 41.6916H17.8045L17.8919 41.0625L17.9793 41.6916H18.32L18.4074 41.0625L18.4947 41.6916H18.8355L18.9228 41.0625L19.0102 41.6916H19.3509L19.4383 41.0625L19.5257 41.6916H19.8664L19.9538 41.0625L20.0411 41.6916H20.3819L20.4692 41.0625L20.5566 41.6916H20.8974L20.9847 41.0625L21.0721 41.6916H21.4128L21.5002 41.0625L21.5876 41.6916H21.9283L22.0157 41.0625L22.103 41.6916H22.4438L22.5311 41.0625L22.6185 41.6916H22.9592L23.0466 41.0625L23.134 41.6916H23.4747L23.5621 41.0625L23.6494 41.6916H23.9902L24.0775 41.0625L24.1649 41.6916H24.5057L24.593 41.0625L24.6804 41.6916H25.0211L25.1085 41.0625L25.1959 41.6916H25.5366L25.624 41.0625L25.7113 41.6916H26.0521L26.1394 41.0625L26.2268 41.6916H26.5675L26.6549 41.0625L26.7423 41.6916H27.083L27.1704 41.0625L26.8559 41.0713Z" fill="#7F5B24"/>
<path d="M27.2053 32.3608C28.4792 32.3608 29.5118 30.6866 29.5118 28.6214C29.5118 26.5562 28.4792 24.8821 27.2053 24.8821C25.9315 24.8821 24.8988 26.5562 24.8988 28.6214C24.8988 30.6866 25.9315 32.3608 27.2053 32.3608Z" fill="#FFCC43"/>
<path opacity="0.2" d="M27.2053 24.882C26.4539 24.882 25.7899 25.4761 25.3706 26.3848C25.7026 26.0877 26.0783 25.8955 26.4889 25.8955C27.7645 25.8955 28.7954 27.573 28.7954 29.6348C28.7954 30.4823 28.6207 31.2512 28.3236 31.8715C29.0313 31.2337 29.5118 30.0193 29.5118 28.6126C29.5118 26.542 28.4809 24.8733 27.2053 24.8733V24.882Z" fill="#DCDBDB"/>
<path opacity="0.3" d="M28.2537 31.0852C26.9782 31.0852 25.9472 29.4077 25.9472 27.3459C25.9472 26.5159 26.1219 25.747 26.4103 25.1267C25.5366 25.6597 24.9075 27.0139 24.9075 28.6214C24.9075 30.6921 25.9385 32.3608 27.214 32.3608C27.9741 32.3608 28.6381 31.7579 29.0663 30.8406C28.8129 30.9891 28.5508 31.0852 28.2625 31.0852H28.2537Z" fill="#B1862D"/>
</g>
<defs>
<clipPath id="clip0_314_3313">
<rect width="24" height="28.7004" fill="white" transform="translate(15 13)"/>
</clipPath>
</defs>
</svg>
