<svg width="249" height="35" viewBox="0 0 249 35" fill="none" xmlns="http://www.w3.org/2000/svg">
<rect width="249" height="35" fill="#FFC529"/>
<mask id="mask0_314_3570" style="mask-type:alpha" maskUnits="userSpaceOnUse" x="0" y="0" width="249" height="35">
<rect width="249" height="35" fill="#D7A624"/>
</mask>
<g mask="url(#mask0_314_3570)">
<path fill-rule="evenodd" clip-rule="evenodd" d="M33.0311 -18.7859L24 -24L-18 48.7461L-8.96892 53.9602L33.0311 -18.7859ZM58.0311 -18.7859L49 -24L7 48.7461L16.0311 53.9602L58.0311 -18.7859ZM74 -24L83.0311 -18.7859L41.0311 53.9602L32 48.7461L74 -24ZM108.031 -18.7859L99 -24L57 48.7461L66.0311 53.9602L108.031 -18.7859ZM124 -24L133.031 -18.7859L91.0311 53.9602L82 48.7461L124 -24ZM158.031 -18.7859L149 -24L107 48.7461L116.031 53.9602L158.031 -18.7859ZM174 -24L183.031 -18.7859L141.031 53.9602L132 48.7461L174 -24ZM208.031 -18.7859L199 -24L157 48.7461L166.031 53.9602L208.031 -18.7859Z" fill="#E9B425" fill-opacity="0.5" style="mix-blend-mode:color-burn"/>
<path fill-rule="evenodd" clip-rule="evenodd" d="M233.031 -18.7859L224 -24L182 48.7461L191.031 53.9602L233.031 -18.7859ZM258.031 -18.7859L249 -24L207 48.7461L216.031 53.9602L258.031 -18.7859ZM274 -24L283.031 -18.7859L241.031 53.9602L232 48.7461L274 -24ZM308.031 -18.7859L299 -24L257 48.7461L266.031 53.9602L308.031 -18.7859ZM324 -24L333.031 -18.7859L291.031 53.9602L282 48.7461L324 -24ZM358.031 -18.7859L349 -24L307 48.7461L316.031 53.9602L358.031 -18.7859ZM374 -24L383.031 -18.7859L341.031 53.9602L332 48.7461L374 -24ZM408.031 -18.7859L399 -24L357 48.7461L366.031 53.9602L408.031 -18.7859Z" fill="#E9B425" fill-opacity="0.5" style="mix-blend-mode:color-burn"/>
</g>
</svg>
