<svg width="33" height="37" viewBox="0 0 33 37" fill="none" xmlns="http://www.w3.org/2000/svg">
<path d="M0.290367 21.7813C0.155537 29.7411 6.18429 36.2827 13.7427 36.4107C21.3011 36.5388 27.548 30.2051 27.6828 22.2453C27.8176 14.2854 21.7889 7.74381 14.2305 7.61578C6.67204 7.48776 0.424886 13.8397 0.290367 21.7813Z" fill="#DE2C29"/>
<path opacity="0.5" d="M24.3595 15.1624C23.6353 14.8933 23.1159 14.3709 22.4479 14.011C21.87 13.7076 21.3817 13.4976 20.8278 13.9285C20.0897 14.4847 19.9556 15.9501 19.6505 16.7522C19.1154 18.2291 18.2508 19.7922 17.2635 21.0781C16.7861 19.1437 15.5524 17.7652 14.3033 16.2213C13.3755 15.0681 12.457 13.3647 10.9129 13.1001C9.04163 12.7932 7.07481 13.8239 5.26644 14.1052C4.37151 14.2368 3.47939 14.2033 2.62617 14.0238C5.13383 10.1035 9.40368 7.55237 14.2301 7.63412C19.4937 7.72328 23.9942 10.9183 26.2116 15.5241C25.5745 15.4949 24.9386 15.3924 24.3592 15.1808L24.3595 15.1624Z" fill="#A50700"/>
<path opacity="0.5" d="M0.511019 19.5101C0.954463 26.6725 6.43011 32.5259 13.4193 32.9195C20.4084 33.3131 26.4539 28.1135 27.6487 21.0338C27.6755 21.603 27.7019 22.1905 27.6738 22.7771C27.2661 30.714 20.8044 36.8239 13.2331 36.3837C5.67961 35.9622 -0.10803 29.1679 0.317898 21.2313C0.346052 20.6447 0.428846 20.0591 0.511329 19.4917L0.511019 19.5101Z" fill="#A50700"/>
<path opacity="0.16" d="M5.37622 15.1528C-0.430559 17.0175 2.57813 24.3885 5.26648 28.0849C6.28133 29.478 8.14577 30.1884 9.03654 31.3776C6.15065 27.5128 5.44073 21.0246 7.3218 16.4516C7.47372 16.0873 7.62625 15.6863 7.48645 15.3353C7.29387 14.8734 6.72989 14.8271 6.27301 14.9111C5.96215 14.9793 5.65128 15.0474 5.37653 15.1345L5.37622 15.1528Z" fill="white"/>
<path opacity="0.2" d="M3.95962 18.1193C1.24452 19.2291 2.62887 23.5456 3.88565 25.7133C4.36373 26.5286 5.23112 26.947 5.63853 27.6327C4.29224 25.3716 3.99228 21.5689 4.87575 18.887C4.95202 18.6865 5.02922 18.431 4.95979 18.228C4.87307 17.9697 4.6005 17.9284 4.39922 17.98C4.2529 18.0142 4.10626 18.0668 3.97784 18.1196L3.95962 18.1193Z" fill="white"/>
<path d="M32.6208 12.5139C27.7874 13.918 22.4172 12.5979 18.5419 9.06485C20.0419 10.8515 20.581 13.4474 20.8489 15.9103C21.1166 18.3915 21.2019 20.888 21.0686 23.3808C21.2633 20.4855 19.3188 18.0492 17.5132 16.0189C16.172 14.5285 14.8491 13.0384 13.508 11.548C11.1795 11.3435 9.07466 12.9956 6.97756 14.1893C4.88045 15.383 2.08236 16.0144 0.41961 14.1516C1.70672 15.6044 6.46999 11.8875 6.98567 10.4836C5.90271 10.9606 4.67312 11.4901 3.47323 11.3414C2.40052 11.2131 1.30382 10.3506 1.16071 9.11901C2.551 9.85805 4.16867 9.00485 5.47733 8.10971C7.83656 6.49854 11.2664 7.29047 12.6956 4.65451C13.3351 3.47285 13.7415 2.0671 14.8121 1.24132C15.9016 0.379163 17.4139 0.368083 18.7984 0.373189C20.8929 0.408667 23.1149 0.44631 24.8623 1.61336C26.6276 2.79906 27.5578 4.88791 28.3806 6.86487C28.5031 7.16048 28.6253 7.47443 28.6197 7.80456C27.1319 6.36672 25.4889 5.49498 24.0014 4.03879C23.2665 3.3292 22.3077 2.92769 21.3477 2.59955C19.9348 2.11697 18.392 1.77895 16.9636 2.2134C15.5349 2.6662 14.3438 4.15039 14.7018 5.60579C17.1319 5.1883 19.6831 6.2222 21.7389 7.46786C25.3458 9.63875 28.1062 12.309 32.5853 12.4582L32.6208 12.5139Z" fill="#50B218"/>
</svg>
