<svg width="68" height="55" viewBox="0 0 68 55" fill="none" xmlns="http://www.w3.org/2000/svg">
<path d="M33.0239 27.1836C32.8801 35.6716 39.3036 42.6559 47.3833 42.7928C55.463 42.9296 62.1194 36.1669 62.2632 27.6788C62.407 19.1908 55.9834 12.2065 47.9037 12.0697C39.824 11.9328 33.1677 18.6956 33.0239 27.1836Z" fill="#C42323"/>
<path opacity="0.16" d="M38.4473 20.0962C32.2528 22.0859 35.4539 29.959 38.3247 33.8931C39.411 35.3825 41.3986 36.1517 42.3458 37.4149C39.2557 33.3012 38.5157 26.3652 40.5196 21.4904C40.6689 21.1092 40.8509 20.6805 40.6986 20.2942C40.5004 19.8112 39.8821 19.7527 39.404 19.8565C39.0693 19.9308 38.7505 20.0054 38.4473 20.0962Z" fill="white"/>
<path opacity="0.2" d="M36.9327 23.2683C34.0388 24.4504 35.5167 29.0645 36.8431 31.3734C37.3364 32.2452 38.2657 32.6927 38.7138 33.4198C37.2779 31.013 36.9498 26.9461 37.9034 24.0842C37.9707 23.8615 38.0544 23.607 37.9788 23.3819C37.8884 23.0926 37.603 23.0717 37.3797 23.1319C37.2201 23.1772 37.0764 23.2227 36.9327 23.2683Z" fill="white"/>
<path d="M67.5204 17.2787C62.3664 18.7743 56.642 17.3822 52.4825 13.6022C54.0855 15.5161 54.658 18.276 54.9467 20.9191C55.2353 23.5623 55.3171 26.234 55.1767 28.9018C55.3879 25.8034 53.3042 23.2098 51.3719 21.0505C49.9539 19.4595 48.52 17.8682 47.1021 16.2772C44.6129 16.0592 42.3758 17.8281 40.1472 19.1015C37.9027 20.3746 34.9219 21.0596 33.1456 19.0628C34.5323 20.6213 39.6172 16.6461 40.1506 15.1521C38.9826 15.676 37.6871 16.2297 36.4037 16.064C35.2471 15.9165 34.0874 15.0174 33.9508 13.704C35.43 14.4965 37.16 13.5985 38.5578 12.6308C39.9556 11.6631 41.5302 10.5705 43.1264 11.0133C43.4743 11.0991 43.8049 11.2646 44.1544 11.2545C44.8851 11.2349 45.4373 10.5088 45.9711 9.92621C46.7638 9.06021 49.2617 8.76674 50.3427 8.68911C52.0595 8.57429 53.5432 10.0385 54.8592 11.0841C58.8074 14.221 62.5054 17.1297 67.5201 17.2946L67.5204 17.2787Z" fill="#428E11"/>
<path d="M0.500538 29.3347C0.356762 37.8227 6.78029 44.807 14.86 44.9439C22.9397 45.0807 29.5961 38.318 29.7398 29.83C29.8836 21.342 23.4601 14.3576 15.3804 14.2208C7.30069 14.0839 0.644043 20.8627 0.500538 29.3347Z" fill="#DE2C29"/>
<path opacity="0.5" d="M26.1842 22.2706C25.4269 21.9859 24.8649 21.4168 24.1407 21.0527C23.5267 20.7385 22.9908 20.5056 22.4115 20.9595C21.6393 21.554 21.4702 23.1021 21.1537 23.9762C20.5713 25.5493 19.6539 27.2126 18.6145 28.5861C18.0935 26.5306 16.7848 25.0534 15.4473 23.3998C14.4519 22.1678 13.4666 20.3443 11.8198 20.0765C9.82487 19.7389 7.72619 20.8386 5.78392 21.1415C4.82879 21.2852 3.87692 21.2371 2.97483 21.0619C5.64959 16.886 10.2212 14.1493 15.3643 14.2364C20.9677 14.3313 25.7846 17.7387 28.1466 22.6556C27.4646 22.612 26.7992 22.5208 26.1681 22.2863L26.1842 22.2706Z" fill="#A50700"/>
<path opacity="0.5" d="M0.731945 26.9241C1.20572 34.5751 7.0385 40.8139 14.5101 41.2282C21.9659 41.6423 28.4268 36.1075 29.698 28.55C29.7354 29.1582 29.7566 29.7821 29.714 30.421C29.2686 38.9039 22.3785 45.4069 14.3042 44.9503C6.24576 44.494 0.0646726 37.258 0.510048 28.7751C0.536481 28.1519 0.626414 27.5299 0.731945 26.9241Z" fill="#A50700"/>
<path opacity="0.16" d="M5.92396 22.2473C-0.270498 24.237 2.93057 32.1101 5.8014 36.0442C6.88765 37.5336 8.87528 38.3028 9.82245 39.5661C6.73236 35.4524 5.99243 28.5164 7.99627 23.6415C8.14563 23.2603 8.32755 22.8316 8.17531 22.4453C7.97707 21.9623 7.35881 21.9038 6.88071 22.0077C6.54601 22.082 6.22718 22.1565 5.92396 22.2473Z" fill="white"/>
<path opacity="0.2" d="M4.40942 25.4195C1.51544 26.6017 2.99335 31.2157 4.32003 33.5087C4.81337 34.3805 5.74261 34.8279 6.19049 35.571C4.75458 33.1643 4.42651 29.0974 5.38005 26.2354C5.44734 26.0127 5.53104 25.7583 5.47134 25.5334C5.38097 25.2441 5.09551 25.2232 4.87246 25.2674C4.71291 25.3127 4.56924 25.3582 4.42529 25.4198L4.40942 25.4195Z" fill="white"/>
<path d="M34.9971 19.4298C29.8431 20.9254 24.1188 19.5333 19.9592 15.7533C21.5622 17.6672 22.1347 20.4271 22.4234 23.0703C22.7121 25.7134 22.7938 28.3851 22.6534 31.0529C22.8646 27.9546 20.7809 25.3609 18.8486 23.2016C17.4306 21.6106 15.9968 20.0193 14.5788 18.4283C12.0896 18.2103 9.85256 19.9792 7.62391 21.2526C5.3794 22.5257 2.39857 23.2108 0.622271 21.214C2.00903 22.7724 7.09389 18.7972 7.6273 17.3032C6.45931 17.8271 5.1638 18.3808 3.88047 18.2151C2.72386 18.0676 1.5641 17.1686 1.42756 15.8551C2.90669 16.6477 4.63675 15.7496 6.03455 14.7819C7.43235 13.8142 9.00692 12.7216 10.6031 13.1644C10.9507 13.2662 11.2814 13.4317 11.6311 13.4057C12.3619 13.3861 12.914 12.6599 13.4479 12.0773C14.2406 11.2113 16.7384 10.9179 17.8194 10.8402C19.5362 10.7254 21.0199 12.1896 22.3518 13.2355C26.3 16.3724 29.998 19.2811 34.9968 19.4458L34.9971 19.4298Z" fill="#50B218"/>
<path d="M18.0141 38.7136C17.8704 47.2016 24.2939 54.1859 32.3736 54.3228C40.4533 54.4596 47.1097 47.6969 47.2535 39.2089C47.3972 30.7208 40.9737 23.7365 32.894 23.5997C24.8143 23.4628 18.1579 30.2256 18.0141 38.7136Z" fill="#DE2C29"/>
<path opacity="0.5" d="M43.6978 31.6494C42.9405 31.3648 42.3785 30.7956 41.6543 30.4316C41.0403 30.1174 40.5044 29.8845 39.9251 30.3383C39.1529 30.9329 38.9838 32.481 38.6673 33.355C38.0849 34.9281 37.1675 36.5915 36.1281 37.965C35.6071 35.9095 34.3143 34.4326 32.9609 32.7787C31.9655 31.5466 30.9802 29.7231 29.3493 29.4557C27.3544 29.1181 25.2557 30.2178 23.3134 30.5207C22.3583 30.6644 21.4064 30.6163 20.5043 30.4411C23.1793 26.2492 27.7507 23.5284 32.8938 23.6156C38.4972 23.7105 43.3141 27.1179 45.6761 32.0347C44.994 31.9912 44.3287 31.9 43.6975 31.6654L43.6978 31.6494Z" fill="#A50700"/>
<path opacity="0.5" d="M18.2458 36.2872C18.7196 43.9382 24.5524 50.177 32.0081 50.5911C39.4639 51.0052 45.9248 45.4704 47.1961 37.9128C47.2334 38.5211 47.2546 39.145 47.2123 39.7679C46.7669 48.2508 39.8767 54.7538 31.8183 54.2975C23.7599 53.8412 17.5788 46.6052 18.0242 38.1223C18.0506 37.4991 18.1406 36.877 18.2461 36.2712L18.2458 36.2872Z" fill="#A50700"/>
<path opacity="0.16" d="M23.4376 31.6262C17.2431 33.6159 20.4442 41.489 23.315 45.4231C24.4013 46.9125 26.3889 47.6817 27.3361 48.945C24.246 44.8313 23.506 37.8953 25.5258 33.0207C25.6751 32.6395 25.857 32.2108 25.7048 31.8245C25.5066 31.3415 24.8883 31.283 24.4102 31.3868C24.0755 31.4611 23.7567 31.5357 23.4534 31.6265L23.4376 31.6262Z" fill="white"/>
<path opacity="0.2" d="M21.923 34.7985C19.0291 35.9807 20.507 40.5947 21.8334 42.9037C22.3267 43.7755 23.256 44.2229 23.7041 44.9501C22.2682 42.5433 21.9401 38.4764 22.8937 35.6144C22.961 35.3917 23.0447 35.1373 22.985 34.9124C22.8946 34.6231 22.6091 34.6023 22.3858 34.6625C22.2263 34.7077 22.0826 34.7532 21.9389 34.7988L21.923 34.7985Z" fill="white"/>
<path d="M52.5107 28.8087C47.3567 30.3043 41.6326 28.8962 37.4728 25.1322C39.0758 27.0461 39.6483 29.806 39.937 32.4492C40.2257 35.0924 40.3074 37.764 40.167 40.4319C40.3782 37.3335 38.2945 34.7398 36.3622 32.5805C34.9442 30.9895 33.5104 29.3983 32.0924 27.8073C29.6032 27.5892 27.3662 29.3581 25.1375 30.6315C22.9089 31.9049 19.9122 32.5897 18.1359 30.5929C19.5226 32.1514 24.6075 28.1761 25.1409 26.6822C23.9729 27.206 22.6774 27.7597 21.3941 27.5941C20.2375 27.4466 19.0777 26.5475 18.9412 25.234C20.4203 26.0266 22.1504 25.1285 23.5482 24.1608C24.946 23.1931 26.5205 22.1006 28.1167 22.5433C28.4646 22.6292 28.7952 22.7947 29.1447 22.7846C29.8755 22.765 30.4276 22.0388 30.9615 21.4562C31.7542 20.5902 34.252 20.2968 35.3331 20.2191C37.0499 20.1043 38.5335 21.5685 39.8495 22.6141C43.7977 25.751 47.4957 28.6598 52.5104 28.8247L52.5107 28.8087Z" fill="#50B218"/>
<path d="M22.5834 6.12436C22.6956 6.0623 22.8078 6.00024 22.92 5.93818C24.4122 5.02007 25.8741 4.0215 27.3969 3.16788C30.507 1.41374 33.9577 0.177025 37.5647 0.957652C42.1997 1.97955 45.5115 7.99976 46.8687 12.244C47.1253 13.0318 47.267 14.0415 46.6392 14.5426C47.6372 13.744 41.7174 6.08069 40.9504 5.42812C38.5865 3.43735 34.9221 3.23137 31.9774 3.66118C30.1468 3.93397 26.3488 5.05287 25.5388 6.94191C27.0846 7.54372 28.2368 8.89037 28.9739 10.3739C29.7109 11.8574 30.064 13.5103 30.4335 15.1315C30.9199 17.3463 32.3585 22.4074 30.0276 24.0948C29.8018 24.2988 29.4179 24.4682 29.1994 24.2406C29.059 24.0944 29.0787 23.8708 29.0978 23.6793C29.4307 19.9594 29.0271 15.6673 27.2574 12.3435C24.9032 7.9065 19.768 7.35583 15.8611 10.2157C14.0124 11.5595 13.5538 12.3832 13.1982 14.6317C13.1634 14.807 13.1282 15.0143 12.9681 15.0915C12.7117 15.2311 12.4308 14.9385 12.3084 14.6646C11.6664 13.1987 12.1904 11.3208 13.0534 10.0562C14.2581 8.30182 16.2316 7.08806 18.3324 6.80385C19.8603 6.58989 21.2381 6.80511 22.5993 6.12462L22.5834 6.12436Z" fill="#428E11"/>
</svg>
