<svg width="63" height="56" viewBox="0 0 63 56" fill="none" xmlns="http://www.w3.org/2000/svg">
<path d="M24.5699 38.3724C24.4118 47.7109 31.4858 55.4016 40.367 55.5521C49.2482 55.7025 56.5787 48.2557 56.7369 38.9172C56.895 29.5787 49.821 21.888 40.9398 21.7375C32.0586 21.5871 24.7281 29.0339 24.5699 38.3724Z" fill="#DE2C29"/>
<path opacity="0.5" d="M52.8439 30.6008C52.0017 30.2862 51.3999 29.6754 50.6066 29.251C49.9378 28.892 49.3456 28.6449 48.6936 29.1396C47.8348 29.8047 47.6647 31.5088 47.3034 32.4511C46.6618 34.1946 45.6579 36.0111 44.5021 37.5247C43.9284 35.2547 42.4962 33.6341 41.0201 31.823C39.9288 30.4611 38.8482 28.4671 37.0325 28.1676C34.8414 27.7986 32.5293 29.0081 30.3892 29.3353C29.3349 29.4913 28.2998 29.4422 27.2985 29.2514C30.249 24.6387 35.2596 21.6414 40.9241 21.7374C47.0907 21.8418 52.3793 25.5983 54.9875 31.0006C54.2348 30.9563 53.4987 30.8648 52.8126 30.6003L52.8439 30.6008Z" fill="#A50700"/>
<path opacity="0.5" d="M24.8348 35.7058C25.3515 44.1232 31.7804 50.9811 39.997 51.4522C48.2138 51.9075 55.3173 45.8162 56.7139 37.4944C56.7494 38.1747 56.7693 38.8547 56.7262 39.5494C56.2385 48.8823 48.6461 56.0402 39.7707 55.5421C30.8954 55.044 24.1086 47.0736 24.5963 37.7407C24.6395 37.046 24.7138 36.3676 24.8348 35.7058Z" fill="#A50700"/>
<path opacity="0.16" d="M30.5409 30.5706C23.7232 32.7627 27.2494 41.4208 30.4092 45.7577C31.6058 47.3901 33.7889 48.2332 34.8327 49.626C31.4406 45.0955 30.6125 37.4631 32.8221 32.1108C33.0019 31.6871 33.1825 31.216 33.0169 30.8022C32.7906 30.261 32.1164 30.2179 31.5968 30.3198C31.2188 30.3924 30.872 30.4814 30.5406 30.5864L30.5409 30.5706Z" fill="white"/>
<path opacity="0.2" d="M28.865 34.067C25.6884 35.3567 27.313 40.442 28.7612 42.9797C29.31 43.9373 30.3376 44.4289 30.8103 45.243C29.2386 42.5926 28.875 38.1134 29.917 34.9699C29.9998 34.7184 30.0831 34.4353 30.0086 34.197C29.9041 33.8791 29.5908 33.8422 29.3541 33.9172C29.1807 33.9617 29.0073 34.0062 28.8648 34.0828L28.865 34.067Z" fill="white"/>
<path d="M62.534 27.4774C56.8557 29.1198 50.5565 27.5748 45.981 23.4194C47.7502 25.5357 48.3738 28.5652 48.7014 31.4632C49.0287 34.377 49.1044 37.3181 48.9608 40.2398C49.2069 36.8299 46.9009 33.9774 44.7751 31.6022C43.2038 29.8527 41.6481 28.1036 40.0768 26.3541C37.3497 26.1183 34.8839 28.068 32.412 29.4487C29.9555 30.8454 26.6624 31.5957 24.706 29.413C26.2308 31.13 31.8141 26.7515 32.4069 25.1178C31.126 25.6809 29.7028 26.3048 28.2933 26.1229C27.0244 25.975 25.7543 24.9735 25.5904 23.5324C27.2238 24.3978 29.1241 23.4026 30.6646 22.3381C32.2051 21.2736 33.9364 20.0701 35.686 20.5581C36.061 20.6593 36.4346 20.8395 36.8115 20.83C37.628 20.8123 38.2225 20.0004 38.814 19.3624C39.6933 18.4131 42.4457 18.0804 43.6242 18.0056C45.5098 17.8794 47.1463 19.4877 48.6023 20.6346C52.9542 24.0907 57.0123 27.289 62.534 27.4774Z" fill="#428E11"/>
<path d="M1.92309 15.0869C-1.11451 23.9182 3.22881 33.4436 11.6392 36.3679C20.034 39.2919 29.2971 34.5016 32.3344 25.686C35.372 16.8547 31.0287 7.32928 22.634 4.40527C14.2392 1.48127 4.96042 6.2713 1.93878 15.0871L1.92309 15.0869Z" fill="#DE2C29"/>
<path opacity="0.5" d="M31.2022 16.5465C30.5054 15.9815 30.1106 15.2003 29.4779 14.5574C28.9535 14.0111 28.4741 13.592 27.7004 13.8634C26.6897 14.2256 25.9882 15.7943 25.3629 16.574C24.2239 18.0247 22.693 19.4528 21.1368 20.5171C21.2862 18.1804 20.4253 16.1901 19.5989 14.0107C18.9675 12.372 18.5658 10.1366 16.9479 9.28729C14.972 8.25806 12.4063 8.68877 10.2779 8.32079C9.22925 8.14498 8.26256 7.76507 7.36077 7.25982C11.5786 3.80659 17.2821 2.52811 22.6342 4.389C28.4701 6.41615 32.337 11.6343 33.1464 17.591C32.4446 17.3262 31.7755 16.9829 31.2024 16.5307L31.2022 16.5465Z" fill="#A50700"/>
<path opacity="0.5" d="M3.00043 12.639C0.900125 20.8066 4.88345 29.346 12.5391 32.3523C20.2105 35.3589 28.8407 31.7907 32.734 24.3331C32.5659 24.9941 32.3666 25.6388 32.1203 26.2827C28.7707 34.9981 19.3568 39.4223 11.0775 36.1683C2.79826 32.9143 -1.1969 23.221 2.15264 14.5056C2.39899 13.8617 2.69213 13.2344 3.00043 12.639Z" fill="#A50700"/>
<path opacity="0.16" d="M10.006 9.54909C2.84972 9.49109 3.52344 18.8279 5.17925 23.9296C5.80589 25.8527 7.61714 27.3375 8.18557 28.9909C6.36171 23.6177 7.9327 16.1208 11.6959 11.7115C11.9842 11.3686 12.3207 10.9634 12.2811 10.5202C12.2282 9.93446 11.6203 9.68708 11.0722 9.61457C10.6964 9.56079 10.3358 9.53887 9.99055 9.53303L10.006 9.54909Z" fill="white"/>
<path opacity="0.2" d="M7.33764 12.3331C3.91188 12.5754 3.88445 17.9014 4.49503 20.7726C4.72789 21.8513 5.54641 22.6397 5.75056 23.5599C5.06393 20.5452 6.11119 16.1689 8.07128 13.4993C8.23167 13.2966 8.39287 13.0464 8.39715 12.7936C8.40277 12.4618 8.10678 12.3303 7.85599 12.3103C7.66769 12.3071 7.49509 12.3041 7.33818 12.3015L7.33764 12.3331Z" fill="white"/>
<path d="M41.3717 16.6239C35.4737 16.4134 29.9601 12.9692 26.8963 7.59074C27.9359 10.1531 27.5856 13.2292 26.9877 16.0958C26.3898 18.9623 25.5728 21.7935 24.522 24.5259C25.7997 21.3706 24.4923 17.9344 23.2078 15.0044C22.2554 12.8545 21.319 10.689 20.3666 8.53911C17.8423 7.45318 14.9047 8.52562 12.1329 9.07929C9.36106 9.63296 6.00742 9.32326 4.82875 6.63213C5.75058 8.7341 12.4148 6.33388 13.474 4.96092C12.0905 5.09554 10.5344 5.22723 9.24192 4.62052C8.0896 4.07942 7.18657 2.72064 7.47741 1.30305C8.75756 2.63661 10.8666 2.293 12.6648 1.77025C14.4629 1.24751 16.4821 0.649487 17.9878 1.63914C18.3139 1.85014 18.6072 2.13961 18.9819 2.25659C19.7627 2.4911 20.5731 1.90421 21.3335 1.49034C22.4586 0.861359 25.1803 1.41325 26.3212 1.70127C28.1496 2.1748 29.2137 4.21595 30.239 5.76647C33.2994 10.4178 36.1771 14.7341 41.356 16.6236L41.3717 16.6239Z" fill="#50B218"/>
</svg>
