<svg width="63" height="69" viewBox="0 0 63 69" fill="none" xmlns="http://www.w3.org/2000/svg">
<path d="M0.674247 52.853C0.53374 61.148 6.8183 67.9696 14.7108 68.1033C22.6033 68.237 29.1156 61.6129 29.2558 53.3371C29.396 45.0614 23.1117 38.2205 15.2192 38.0868C7.32674 37.9531 0.814754 44.5579 0.674247 52.853Z" fill="#DE2C29"/>
<path opacity="0.5" d="M25.7594 45.9452C25.0168 45.6625 24.4704 45.113 23.7675 44.7537C23.1789 44.435 22.6461 44.2137 22.0827 44.6673C21.3255 45.2527 21.1656 46.7744 20.8639 47.6183C20.3014 49.1525 19.3924 50.7773 18.373 52.13C17.8706 50.1147 16.5919 48.6844 15.278 47.0606C14.3021 45.8477 13.3549 44.0756 11.7497 43.8169C9.8006 43.4944 7.75138 44.5596 5.84933 44.8554C4.90804 44.9939 3.98885 44.959 3.09144 44.7701C5.70918 40.6851 10.1616 38.0204 15.1998 38.1057C20.6785 38.1985 25.3745 41.5199 27.6883 46.3252C27.0182 46.2946 26.3681 46.2064 25.759 45.9645L25.7594 45.9452Z" fill="#A50700"/>
<path opacity="0.5" d="M0.905988 50.4833C1.37338 57.9589 7.07619 64.0567 14.3699 64.4697C21.6637 64.8827 27.9641 59.4514 29.2004 52.0818C29.2477 52.6808 29.2567 53.2791 29.2271 53.8961C28.7993 62.1863 22.0617 68.5364 14.1744 68.0941C6.3063 67.6521 0.255844 60.5836 0.702856 52.2938C0.732469 51.6768 0.819232 51.08 0.905988 50.4833Z" fill="#A50700"/>
<path opacity="0.16" d="M5.96543 45.9188C-0.0843589 47.8617 3.04285 55.5561 5.85196 59.405C6.90054 60.8507 8.84242 61.5976 9.77933 62.8484C6.76245 58.8223 6.03393 52.0562 7.99263 47.2846C8.15209 46.9207 8.31286 46.4796 8.16549 46.1297C7.96294 45.6439 7.36973 45.5953 6.90801 45.7032C6.58105 45.7749 6.27324 45.8468 5.98426 45.9384L5.96543 45.9188Z" fill="white"/>
<path opacity="0.2" d="M4.47575 49.0196C1.65863 50.1682 3.09586 54.6886 4.39924 56.9298C4.88293 57.787 5.79559 58.2077 6.2241 58.9289C4.82689 56.5704 4.49159 52.609 5.4205 49.8074C5.50072 49.5965 5.5816 49.3471 5.50889 49.1143C5.41768 48.8426 5.13099 48.7991 4.91897 48.8727C4.76506 48.9087 4.62998 48.9643 4.49491 49.0199L4.47575 49.0196Z" fill="white"/>
<path d="M34.372 43.1582C29.3268 44.6165 23.7355 43.2482 19.6783 39.5518C21.2561 41.431 21.8045 44.1224 22.0867 46.6936C22.3686 49.2841 22.4586 51.8906 22.3187 54.4933C22.5233 51.4672 20.4965 48.9437 18.597 46.8275C17.2052 45.2795 15.8138 43.7122 14.422 42.1642C11.9921 41.9494 9.8168 43.6685 7.63022 44.9244C5.44396 46.1609 2.52008 46.8253 0.790029 44.8857C2.14381 46.4137 7.09604 42.5226 7.61894 41.0649C6.47988 41.5666 5.22523 42.1049 3.96286 41.9678C2.83458 41.8329 1.6999 40.9453 1.54938 39.6499C2.99254 40.4269 4.67452 39.5485 6.05097 38.607C7.42742 37.6655 8.95941 36.5915 10.5042 37.0229C10.8286 37.1056 11.1708 37.2658 11.4964 37.2713C12.225 37.245 12.7544 36.54 13.2622 35.9698C14.0429 35.1339 16.4816 34.8279 17.5366 34.7686C19.2055 34.6618 20.6761 36.076 21.9618 37.1012C25.8188 40.1768 29.4306 43.0167 34.3333 43.1769L34.372 43.1582Z" fill="#428E11"/>
<path d="M28.7672 34.6694C28.6267 42.9645 34.9112 49.786 42.8037 49.9197C50.6962 50.0534 57.2085 43.4293 57.3487 35.1535C57.4889 26.8778 51.2046 20.0369 43.3122 19.9032C35.4197 19.7695 28.9074 26.3936 28.7672 34.6694Z" fill="#DE2C29"/>
<path opacity="0.5" d="M53.8715 27.762C53.1289 27.4793 52.5825 26.9297 51.8796 26.5705C51.291 26.2518 50.7582 26.0305 50.1948 26.484C49.4376 27.0694 49.2777 28.5911 48.976 29.435C48.4134 30.9692 47.5045 32.594 46.4851 33.9468C45.9827 31.9314 44.7039 30.5012 43.3901 28.8773C42.8272 28.1731 42.2208 26.6384 41.085 26.9472C40.4499 27.1101 39.9998 27.6621 39.6079 28.1765C37.9615 30.3484 36.369 32.7334 36.093 35.4495C35.9568 36.7015 36.1268 37.9779 36.2202 39.2531C36.2169 39.446 36.2517 39.6588 36.1338 39.8305C36.0354 39.9832 35.8808 40.0578 35.7074 40.1127C34.5703 40.4987 33.2564 40.0133 32.409 39.1306C31.5617 38.2479 31.1219 37.0634 30.8739 35.8628C30.3933 33.6935 30.4507 31.4368 30.9854 29.2847C31.3547 27.8437 31.752 25.8822 32.6346 24.6815C34.9877 21.5181 39.5 19.8386 43.293 19.9028C48.7718 19.9957 53.4677 23.317 55.7815 28.1224C55.1114 28.0917 54.4617 27.9842 53.8523 27.7617L53.8715 27.762Z" fill="#A50700"/>
<path opacity="0.5" d="M28.9989 32.2997C29.4663 39.7754 35.1691 45.8731 42.4632 46.2668C49.7569 46.6798 56.0571 41.2678 57.2936 33.8789C57.341 34.4779 57.35 35.0762 57.3204 35.6932C56.8925 43.9834 50.1549 50.3336 42.2677 49.8912C34.3996 49.4492 28.3491 42.3807 28.7961 34.0909C28.8257 33.4739 28.9125 32.8772 28.9992 32.2804L28.9989 32.2997Z" fill="#A50700"/>
<path d="M62.4837 24.9942C57.4386 26.4524 51.8473 25.0842 47.7901 21.3877C49.3679 23.2669 49.9163 25.9584 50.1985 28.5296C50.4804 31.1201 50.5703 33.7266 50.4305 36.3292C50.635 33.3032 48.6082 30.7796 46.7087 28.6634C45.317 27.1154 43.9255 25.5482 42.5337 24.0002C40.1038 23.7854 37.9286 25.5045 35.7423 26.741C33.556 27.9775 30.6322 28.642 28.9021 26.7023C30.2559 28.2304 35.2081 24.3392 35.731 22.8815C34.592 23.3832 33.3373 23.9216 32.0749 23.7844C30.9467 23.6495 29.812 22.762 29.6806 21.4669C31.1238 22.2439 32.8057 21.3655 34.1822 20.424C35.8496 19.2751 37.5003 19.1101 38.3382 17.1561C39.157 15.2017 38.9653 12.9408 38.1353 11.0357C37.1394 8.74186 35.4081 6.87938 33.6562 5.09374C32.6391 4.0538 31.5648 2.9936 30.1921 2.58442C27.8853 1.88927 25.1196 4.52462 23.4671 5.92456C21.9121 7.22967 20.3567 8.55406 18.8207 9.8595C18.4698 9.0817 19.0784 8.22367 19.6447 7.59648C21.1485 5.92387 22.6715 4.2516 24.5324 2.99026C26.3933 1.72893 28.6484 0.956679 30.8653 1.30297C34.229 1.82306 36.7083 4.7788 38.2279 7.83407C39.7471 10.9086 40.6286 14.3004 42.5348 17.15C43.6112 16.956 44.6317 16.6645 45.7252 16.5865C47.3942 16.4797 48.8648 17.894 50.1505 18.9192C54.0074 21.9947 57.6193 24.8346 62.5221 24.9948L62.4837 24.9942Z" fill="#428E11"/>
<path d="M8.07287 25.5776C7.93236 33.8727 14.2169 40.6943 22.1094 40.8279C30.0019 40.9616 36.5139 34.3568 36.6544 26.0617C36.7949 17.7667 30.5103 10.9451 22.6179 10.8114C14.7254 10.6777 8.21305 17.3018 8.07287 25.5776Z" fill="#DE2C29"/>
<path opacity="0.5" d="M33.158 18.6698C32.4155 18.387 31.8691 17.8375 31.1662 17.4783C30.5772 17.1788 30.0448 16.9383 29.4814 17.3918C28.7241 17.9772 28.5642 19.4989 28.2625 20.3428C27.7 21.877 26.791 23.5018 25.7717 24.8546C25.2693 22.8392 23.9905 21.4089 22.6766 19.7851C21.7007 18.5722 20.7535 16.8002 19.1483 16.5414C17.1992 16.219 15.15 17.2841 13.2671 17.5803C12.3258 17.7187 11.4066 17.6838 10.5092 17.495C13.127 13.4099 17.5794 10.7452 22.6175 10.8306C28.0963 10.9234 32.7922 14.2447 35.1061 19.0501C34.4359 19.0195 33.7859 18.9313 33.1768 18.6894L33.158 18.6698Z" fill="#A50700"/>
<path opacity="0.5" d="M8.28546 23.2078C8.75285 30.6834 14.4557 36.7812 21.7494 37.1942C29.0431 37.6072 35.3436 32.1759 36.599 24.8066C36.6272 25.4053 36.6554 26.0039 36.6258 26.6209C36.1979 34.9111 29.4603 41.2613 21.573 40.8189C13.7049 40.3769 7.67363 33.3088 8.10149 25.0186C8.1311 24.4016 8.21786 23.8049 8.30462 23.2082L8.28546 23.2078Z" fill="#A50700"/>
<path opacity="0.16" d="M13.3641 18.6434C7.31428 20.5864 10.4415 28.2807 13.2314 32.1293C14.28 33.575 16.2216 34.3412 17.1588 35.5727C14.1419 31.5466 13.4134 24.7805 15.3721 20.0089C15.5316 19.645 15.6923 19.2039 15.545 18.854C15.3424 18.3682 14.7492 18.3196 14.2875 18.4275C13.9605 18.4992 13.6336 18.5708 13.3637 18.6627L13.3641 18.6434Z" fill="white"/>
<path opacity="0.2" d="M11.8744 21.7441C9.05727 22.8927 10.4945 27.4131 11.7979 29.6543C12.2816 30.5115 13.1942 30.9322 13.6227 31.6534C12.2255 29.2949 11.8902 25.3334 12.8191 22.5319C12.8994 22.321 12.9802 22.0715 12.9075 21.8387C12.8163 21.567 12.5485 21.5432 12.3176 21.5972C12.1637 21.6332 12.0095 21.6885 11.8744 21.7441Z" fill="white"/>
<path d="M41.7703 15.9019C36.7252 17.3601 31.1339 15.9919 27.0766 12.2954C28.6544 14.1746 29.2029 16.8661 29.4851 19.4373C29.7669 22.0278 29.8569 24.6343 29.717 27.2369C29.9216 24.2109 27.8948 21.6873 25.9953 19.5711C24.6035 18.0231 23.2121 16.4559 21.8203 14.9079C19.3904 14.6931 17.2148 16.4315 15.0285 17.668C12.8423 18.9045 9.9184 19.569 8.18835 17.6293C9.54214 19.1574 14.5135 15.2665 15.0173 13.8085C13.8782 14.3102 12.6236 14.8486 11.3615 14.6921C10.2332 14.5572 9.09855 13.6697 8.94804 12.3743C10.3912 13.1513 12.0732 12.2729 13.4496 11.3313C14.8261 10.3898 16.3581 9.3159 17.9029 9.74729C18.2272 9.82997 18.5694 9.99013 18.9142 9.99597C19.6237 9.9694 20.153 9.26441 20.68 8.69444C21.4607 7.85863 23.8994 7.55259 24.9544 7.49328C26.6233 7.38647 28.0939 8.80072 29.3796 9.82591C33.2365 12.9015 36.8484 15.7413 41.7512 15.9016L41.7703 15.9019Z" fill="#50B218"/>
</svg>
