<svg width="41" height="42" viewBox="0 0 41 42" fill="none" xmlns="http://www.w3.org/2000/svg">
<path d="M1.63033 21.0617C-0.399101 29.8927 4.75759 38.6205 13.1558 40.5808C21.554 42.5411 30.0053 36.9677 32.0348 28.1367C34.0642 19.3057 28.9075 10.5779 20.5093 8.6176C12.1111 6.65729 3.65977 12.2307 1.63033 21.0617Z" fill="#DE2C29"/>
<path opacity="0.5" d="M30.0044 19.443C29.2677 18.9807 28.8146 18.2608 28.154 17.706C27.5851 17.2278 27.0884 16.882 26.3753 17.2261C25.437 17.6787 24.9263 19.2632 24.391 20.0976C23.4346 21.6183 22.1058 23.1515 20.7082 24.3461C20.6164 22.0766 19.5862 20.2599 18.5599 18.2183C17.7852 16.7057 17.1695 14.5961 15.5243 13.931C13.5091 13.1284 11.0964 13.8185 8.99543 13.6892C7.95407 13.634 6.99063 13.3741 6.06694 12.9648C9.77867 9.20415 15.1513 7.38337 20.5093 8.61745C26.3493 9.97214 30.6076 14.5988 31.982 20.2637C31.2781 20.0643 30.5935 19.8278 30.0044 19.443Z" fill="#A50700"/>
<path opacity="0.5" d="M2.41681 18.5823C1.21878 26.6776 5.92553 34.4982 13.6327 36.5967C21.321 38.7137 29.2862 34.3691 32.2812 26.7727C32.1771 27.4269 32.0543 28.0809 31.8947 28.7154C29.5502 37.4661 20.9185 42.6991 12.6001 40.4215C4.28172 38.1439 -0.554842 29.1966 1.78964 20.4459C1.96822 19.793 2.18337 19.1781 2.41712 18.5635L2.41681 18.5823Z" fill="#A50700"/>
<path opacity="0.16" d="M8.86377 14.8678C1.96552 15.5569 3.56382 24.4868 5.67947 29.2459C6.48663 31.0401 8.38253 32.2905 9.1011 33.8209C6.78458 28.8335 7.54291 21.4242 10.7296 16.7924C10.9779 16.4218 11.264 16.0143 11.1782 15.5817C11.0761 15.0177 10.4463 14.8384 9.92532 14.8296C9.55318 14.8233 9.19933 14.836 8.88237 14.8681L8.86377 14.8678Z" fill="white"/>
<path opacity="0.2" d="M6.57986 17.8467C3.29423 18.4283 3.82129 23.5728 4.70594 26.2867C5.04234 27.3045 5.90576 27.9752 6.20748 28.8424C5.25031 26.0148 5.7888 21.6943 7.418 18.9105C7.53345 18.6875 7.68644 18.4465 7.65335 18.2022C7.62153 17.8831 7.3254 17.7843 7.08319 17.799C6.91573 17.7961 6.74795 17.812 6.57986 17.8467Z" fill="white"/>
<path d="M28.0013 9.13819C31.4299 13.301 34.6403 17.1601 39.8297 18.4663C34.1087 18.8755 28.4414 16.118 24.9505 11.2419C26.2133 13.6062 26.1811 16.6045 25.9099 19.4301C25.6387 22.2557 25.1259 25.0584 24.3905 27.8199C25.3003 24.649 23.6976 21.4731 22.1611 18.7856C21.0222 16.7983 19.9016 14.83 18.7627 12.8427C16.2262 12.0501 13.4858 13.4094 10.8848 14.2275C8.26519 15.0453 5.00706 15.1025 3.59729 12.6233C4.69994 14.5538 10.8743 11.5471 11.7733 10.1191C10.4471 10.3965 8.97179 10.6902 7.65799 10.2368C6.49209 9.84221 5.47041 8.62535 5.60585 7.22193C6.98234 8.36982 8.98313 7.82269 10.6512 7.13871C11.8506 6.65297 13.4276 5.855 14.7625 6.15876C15.9679 6.42283 16.6783 7.33452 17.9248 6.26855C18.5859 5.69872 18.9903 4.89962 19.4861 4.19579C20.4018 2.88056 21.7034 1.85301 23.1839 1.25957C23.5775 1.09755 24.0077 0.973632 24.4356 0.980881C25.2729 0.995064 26.0086 1.51359 26.6128 2.10485C29.0473 4.52643 29.611 8.60317 31.3481 11.5377C31.7098 12.1624 32.1462 12.7696 32.283 13.4841C31.445 13.5074 30.5333 13.4919 29.9288 12.9194C29.6358 12.6333 29.4561 12.2554 29.3136 11.8781C28.2445 9.06735 28.2397 6.04966 25.5173 4.148C24.9655 3.7638 24.3376 3.47202 23.6677 3.46068C22.6257 3.44303 21.9829 4.03191 21.2285 4.6189C19.003 6.34303 21.5428 5.84252 22.9412 5.69752C25.3462 5.45712 26.669 7.57872 28.0376 9.19505L28.0013 9.13819Z" fill="#50B218"/>
</svg>
