<svg width="54" height="54" viewBox="0 0 54 54" fill="none" xmlns="http://www.w3.org/2000/svg">
<path d="M54 27C54 41.9117 41.9117 54 27 54C12.0883 54 0 41.9117 0 27C0 12.0883 12.0883 0 27 0C41.9117 0 54 12.0883 54 27Z" fill="white" fill-opacity="0.8"/>
<path d="M54 27C54 41.9117 41.9117 54 27 54C12.0883 54 0 41.9117 0 27C0 12.0883 12.0883 0 27 0C41.9117 0 54 12.0883 54 27Z" fill="white" fill-opacity="0.8"/>
<g clip-path="url(#clip0_314_3312)">
<path d="M39.8829 29.1811C35.464 33.6001 28.2761 33.6001 23.8572 29.1811C19.4382 24.7622 19.4319 17.5681 23.8509 13.1491C28.2699 8.73013 35.4577 8.73013 39.8767 13.1491C44.2956 17.5681 44.2956 24.7559 39.8767 29.1749L39.8829 29.1811ZM25.4135 14.7117C21.8571 18.2681 21.8571 24.0559 25.4135 27.6123C28.9699 31.1687 34.7577 31.1687 38.3141 27.6123C41.8705 24.0559 41.8705 18.2681 38.3141 14.7117C34.7577 11.1553 28.9699 11.1553 25.4135 14.7117Z" fill="#3A9E47"/>
<g opacity="0.5">
<mask id="mask0_314_3312" style="mask-type:luminance" maskUnits="userSpaceOnUse" x="20" y="9" width="24" height="24">
<path d="M39.8829 29.1811C35.464 33.6001 28.2761 33.6001 23.8572 29.1811C19.4382 24.7622 19.4319 17.5681 23.8509 13.1491C28.2699 8.73013 35.4577 8.73013 39.8767 13.1491C44.2956 17.5681 44.2956 24.7559 39.8767 29.1749L39.8829 29.1811ZM25.4135 14.7117C21.8571 18.2681 21.8571 24.0559 25.4135 27.6123C28.9699 31.1687 34.7577 31.1687 38.3141 27.6123C41.8705 24.0559 41.8705 18.2681 38.3141 14.7117C34.7577 11.1553 28.9699 11.1553 25.4135 14.7117Z" fill="white"/>
</mask>
<g mask="url(#mask0_314_3312)">
<path d="M21.7321 26.231C21.7321 26.231 22.1196 24.2434 23.6259 22.5121C25.1322 20.7807 24.8197 23.1433 24.8197 23.1433L24.3947 24.8309L21.7383 26.2247L21.7321 26.231Z" fill="#19542A"/>
<path d="M38.4079 25.656C38.4079 25.656 39.3267 25.2997 40.333 25.9685C41.3393 26.6373 43.4019 25.4997 43.1831 24.4684C42.9643 23.4371 41.2455 28.4811 41.2455 28.4811L38.6079 26.5685L38.4079 25.6435L38.4079 25.656Z" fill="#19542A"/>
</g>
</g>
<path d="M42.0456 28.4186L30.82 19.8931C29.92 19.2056 28.7449 19.2181 28.0511 19.9119L22.0383 25.9247C21.3383 26.6247 21.3383 27.7998 22.0196 28.7061L23.1259 30.1499C24.2384 32.3625 21.8383 32.1 21.8383 32.1L12.1691 28.8311L11.1878 31.725L21.9821 35.3814C25.6323 36.619 30.6762 40.0254 30.6762 40.0254C30.6762 40.0254 30.6575 40.0066 30.6325 39.9691C31.2075 40.6442 32.1763 40.7754 32.7263 40.2254L42.3643 30.5874C42.9331 30.0186 42.7831 28.9936 42.0456 28.4311L42.0456 28.4186Z" fill="#3A9E47"/>
<g opacity="0.2">
<path d="M12.8379 31.8L22.5071 35.0689C22.5071 35.0689 24.9072 35.3314 23.7947 33.1188L22.9009 31.95C22.4383 32.1625 21.8446 32.0937 21.8446 32.0937L12.1691 28.8311L11.1878 31.725L12.6816 32.2312L12.8254 31.8L12.8379 31.8Z" fill="white"/>
<path d="M42.0455 28.4185L30.82 19.8931C29.9199 19.2056 28.7449 19.2181 28.0511 19.9118L22.0383 25.9246C21.3383 26.6247 21.3383 27.7997 22.0196 28.706L22.4383 29.2498C22.5133 29.1248 22.5946 29.006 22.7008 28.8998L28.7136 22.887C29.4074 22.1932 30.5825 22.1807 31.4825 22.8682L42.0518 30.8874L42.3643 30.5749C42.9331 30.0061 42.7831 28.981 42.0455 28.4185Z" fill="white"/>
</g>
<path opacity="0.3" d="M42.0455 28.4186L30.82 19.8932C29.9199 19.2057 28.7449 19.2182 28.0511 19.912L22.0383 25.9248C21.3383 26.6248 21.3383 27.7998 22.0196 28.7061L22.4383 29.2499C22.5133 29.1249 22.5946 29.0062 22.7008 28.8999L28.7136 22.8871C29.4074 22.1933 30.5825 22.1808 31.4825 22.8684L42.0518 30.8875L42.3643 30.575C42.9331 30.0062 42.7831 28.9812 42.0455 28.4186Z" fill="white"/>
<path opacity="0.2" d="M42.0456 28.4186L41.658 28.1186C38.2391 35.7752 29.8575 38.2566 26.9698 35.894C24.1634 33.6001 15.363 31.3125 11.6316 30.4187L11.1941 31.7187L21.9883 35.3752C25.6385 36.6127 30.6825 40.0191 30.6825 40.0191C30.6825 40.0191 30.6638 40.0004 30.6388 39.9629C31.2138 40.6379 32.1826 40.7692 32.7326 40.2192L42.3706 30.5812C42.9394 30.0124 42.7893 28.9874 42.0518 28.4248L42.0456 28.4186Z" fill="#313435"/>
<path opacity="0.2" d="M42.0456 28.4186L38.0579 25.3934C38.5579 32.2062 31.57 36.5815 27.3448 34.6689C24.2634 33.275 15.9255 31.35 11.6378 30.4124L11.1878 31.725L21.9821 35.3814C25.6323 36.619 30.6762 40.0254 30.6762 40.0254C30.6762 40.0254 30.6575 40.0066 30.6325 39.9691C31.2075 40.6442 32.1763 40.7754 32.7263 40.2254L42.3643 30.5874C42.9331 30.0186 42.7831 28.9936 42.0456 28.4311L42.0456 28.4186Z" fill="#2A8340"/>
<path d="M13.1879 28.7249C12.6941 28.4311 12.4691 28.0311 12.3754 27.6873C12.2879 27.3623 11.8753 27.2623 11.6253 27.4873C9.9065 29.0311 5.78755 32.7876 6.09382 33.0938C6.48133 33.4813 7.53138 33.2938 9.28772 32.45C9.92525 32.15 10.8128 31.7875 11.3566 31.7687L13.7629 29.3624C13.5317 29.2311 13.4629 28.8874 13.1879 28.7249Z" fill="#3A9E47"/>
<g opacity="0.4">
<path d="M11.6253 27.4873C9.9065 29.0311 5.78755 32.7876 6.09382 33.0938C6.18132 33.1813 6.30008 33.2251 6.45008 33.2626C7.06261 32.3125 10.394 29.2686 11.9003 27.9248C12.0566 27.7811 12.2816 27.7811 12.4441 27.8811C12.4191 27.8186 12.3941 27.7561 12.3754 27.6873C12.2879 27.3623 11.8753 27.2623 11.6253 27.4873Z" fill="white"/>
<path d="M13.1879 28.7248C12.9879 28.5998 12.8441 28.4686 12.7254 28.3248C12.8441 28.6186 13.0629 28.9124 13.4629 29.1624C13.5692 29.2311 13.6442 29.3186 13.7129 29.4124L13.7629 29.3624C13.5317 29.2311 13.4629 28.8873 13.1879 28.7248Z" fill="white"/>
</g>
<path opacity="0.3" d="M13.7567 29.3687L11.3503 31.775L11.6878 31.8875L14.0942 29.4812L13.7567 29.3687Z" fill="#070808"/>
<path opacity="0.1" d="M11.3503 31.775L13.7567 29.3686C13.6317 29.2936 13.5504 29.1623 13.4629 29.0248C12.2504 29.4123 10.6065 30.2561 9.38147 31.5937C8.07515 33.0375 7.01885 33.2563 6.08756 33.025C6.08131 33.0563 6.08131 33.0813 6.09381 33.0938C6.48133 33.4813 7.53138 33.2938 9.28771 32.45C9.92524 32.15 10.8128 31.7875 11.3566 31.7687L11.3503 31.775Z" fill="#313435"/>
</g>
<defs>
<clipPath id="clip0_314_3312">
<rect width="38" height="25.4129" fill="white" transform="translate(5 32) rotate(-45)"/>
</clipPath>
</defs>
</svg>
