<svg width="142" height="32" viewBox="0 0 142 32" fill="none" xmlns="http://www.w3.org/2000/svg">
<path d="M2.80584 28V7.364H6.13784L12.9698 19.488L15.1258 23.856H15.2658C15.0978 21.728 14.8458 19.236 14.8458 16.996V7.364H17.9258V28H14.5938L7.76184 15.848L5.60584 11.536H5.46584C5.63384 13.664 5.88584 16.044 5.88584 18.284V28H2.80584ZM22.8683 28V7.364H26.1163V15.792H34.9363V7.364H38.1843V28H34.9363V18.62H26.1163V28H22.8683ZM46.5389 10.22V21.7C47.4069 21.672 48.2469 21.616 49.1149 21.588V10.22H46.5389ZM51.7469 10.22V21.42C52.5309 21.336 53.2869 21.252 53.9869 21.14L54.1829 23.24C50.2349 24.024 45.0549 24.136 41.8629 24.136L41.5549 21.756C42.2269 21.756 43.0669 21.756 43.9349 21.756V10.22H42.0309V7.896H53.6229V10.22H51.7469ZM60.6509 4.844H63.3949V30.156H60.6509V17.192H57.9349V28.896H55.2189V5.376H57.9349V14.84H60.6509V4.844ZM88.9887 17.22L87.7287 19.6C83.6127 18.76 80.0567 16.128 78.4047 12.656C76.7527 16.128 73.1967 18.76 69.0807 19.6L67.8487 17.22C72.8327 16.296 76.8927 12.404 76.8927 8.4V6.496H79.9447V8.4C79.9447 12.432 84.0047 16.324 88.9887 17.22ZM67.0647 24.528H89.9687V26.908H67.0647V24.528ZM102.179 21.588V9.52H96.1025V21.588H102.179ZM110.411 4.844H113.323V30.212H110.411V16.212H105.007V23.856H93.2745V7.224H105.007V13.86H110.411V4.844ZM121.92 7.336V21.308C125.504 21.28 129.284 20.972 133.26 20.16L133.568 22.568C129.228 23.464 125.14 23.772 121.22 23.772H119.064V7.336H121.92ZM135.584 4.872H138.468V30.156H135.584V4.872Z" fill="white"/>
</svg>
