<svg width="112" height="64" viewBox="0 0 112 64" fill="none" xmlns="http://www.w3.org/2000/svg">
<path d="M3.33203 26V6.27148H6.09375L16.2383 20.627H16.4434V6.27148H19.4238V26H16.6621L6.53125 11.6719H6.3125V26H3.33203ZM23.8867 26V6.27148H26.9492V14.6113H37.0801V6.27148H40.1289V26H37.0801V17.2637H26.9492V26H23.8867ZM51.7344 26V6.27148H59.418C63.2871 6.27148 65.9668 8.86914 65.9668 12.7383V12.7656C65.9668 16.6211 63.2871 19.2598 59.418 19.2598H54.7969V26H51.7344ZM58.6523 8.85547H54.7969V16.6895H58.6523C61.3047 16.6895 62.8496 15.2539 62.8496 12.7793V12.752C62.8496 10.291 61.3047 8.85547 58.6523 8.85547ZM72.6035 26.2461C69.7734 26.2461 67.6816 24.5234 67.6816 21.8301V21.8027C67.6816 19.1504 69.6777 17.6055 73.2188 17.3867L77.2383 17.1543V15.8418C77.2383 14.2148 76.2129 13.3125 74.2031 13.3125C72.5625 13.3125 71.4824 13.9141 71.127 14.9668L71.1133 15.0215H68.2559L68.2695 14.9258C68.625 12.4922 70.9629 10.8652 74.3398 10.8652C78.0723 10.8652 80.1777 12.7246 80.1777 15.8418V26H77.2383V23.8945H77.0059C76.1309 25.3984 74.5723 26.2461 72.6035 26.2461ZM70.6348 21.707C70.6348 23.0742 71.7969 23.8809 73.3965 23.8809C75.6113 23.8809 77.2383 22.4316 77.2383 20.5176V19.2461L73.6152 19.4785C71.5645 19.6016 70.6348 20.3398 70.6348 21.6797V21.707ZM89.2617 26.2871C85.6797 26.2871 83.4102 24.6055 83.123 22.1172V22.1035H86.0898L86.1035 22.1172C86.4727 23.2383 87.5527 23.9902 89.3164 23.9902C91.1484 23.9902 92.4199 23.1562 92.4199 21.9395V21.9121C92.4199 20.9824 91.7227 20.3535 90 19.957L87.6348 19.4102C84.832 18.7676 83.5332 17.4961 83.5332 15.3223V15.3086C83.5332 12.7246 85.9395 10.8652 89.3027 10.8652C92.6934 10.8652 94.8672 12.5605 95.127 14.9805V14.9941H92.2969V14.9668C92.0098 13.9277 90.957 13.1484 89.2891 13.1484C87.6621 13.1484 86.4863 13.9551 86.4863 15.1445V15.1719C86.4863 16.1016 87.1699 16.6758 88.8379 17.0723L91.1895 17.6055C94.0469 18.2754 95.4141 19.4922 95.4141 21.6387V21.666C95.4141 24.4141 92.7891 26.2871 89.2617 26.2871ZM103.582 26.2871C100 26.2871 97.7305 24.6055 97.4434 22.1172V22.1035H100.41L100.424 22.1172C100.793 23.2383 101.873 23.9902 103.637 23.9902C105.469 23.9902 106.74 23.1562 106.74 21.9395V21.9121C106.74 20.9824 106.043 20.3535 104.32 19.957L101.955 19.4102C99.1523 18.7676 97.8535 17.4961 97.8535 15.3223V15.3086C97.8535 12.7246 100.26 10.8652 103.623 10.8652C107.014 10.8652 109.188 12.5605 109.447 14.9805V14.9941H106.617V14.9668C106.33 13.9277 105.277 13.1484 103.609 13.1484C101.982 13.1484 100.807 13.9551 100.807 15.1445V15.1719C100.807 16.1016 101.49 16.6758 103.158 17.0723L105.51 17.6055C108.367 18.2754 109.734 19.4922 109.734 21.6387V21.666C109.734 24.4141 107.109 26.2871 103.582 26.2871ZM14.3984 58V38.2715H17.9258L24.2148 54.0078H24.4336L30.7227 38.2715H34.25V58H31.4609V43.5215H31.2559L25.459 58H23.1895L17.4062 43.5215H17.1875V58H14.3984ZM44.6465 58.2871C40.2852 58.2871 37.6191 55.375 37.6191 50.5898V50.5625C37.6191 45.791 40.2988 42.8652 44.6465 42.8652C48.9805 42.8652 51.6602 45.7773 51.6602 50.5625V50.5898C51.6602 55.375 48.9941 58.2871 44.6465 58.2871ZM44.6465 55.8125C47.1895 55.8125 48.6387 53.8711 48.6387 50.5898V50.5625C48.6387 47.2676 47.1895 45.3398 44.6465 45.3398C42.0898 45.3398 40.6543 47.2676 40.6543 50.5625V50.5898C40.6543 53.8848 42.0898 55.8125 44.6465 55.8125ZM54.7012 58V43.1523H57.668V45.4082H57.8867C58.6113 43.8223 60.0332 42.8652 62.1934 42.8652C65.5156 42.8652 67.3477 44.8477 67.3477 48.3887V58H64.3945V49.0859C64.3945 46.625 63.3691 45.4082 61.1953 45.4082C59.0215 45.4082 57.668 46.8984 57.668 49.291V58H54.7012ZM77.2246 58.2871C72.877 58.2871 70.252 55.3203 70.252 50.6172V50.6035C70.252 45.9688 72.9316 42.8652 77.0742 42.8652C81.2168 42.8652 83.7598 45.8594 83.7598 50.3164V51.3555H73.2324C73.2871 54.1992 74.8457 55.8535 77.293 55.8535C79.1934 55.8535 80.3281 54.9102 80.6836 54.1445L80.7383 54.0352L83.5957 54.0215L83.5684 54.1445C83.0762 56.0996 81.0254 58.2871 77.2246 58.2871ZM77.0879 45.2988C75.0645 45.2988 73.5332 46.6797 73.2734 49.2363H80.8203C80.5879 46.584 79.0977 45.2988 77.0879 45.2988ZM87.9082 63.2227C87.5391 63.2227 87.1016 63.1953 86.7188 63.1543V60.8164C87.0059 60.8574 87.375 60.8711 87.7168 60.8711C89.0977 60.8711 89.918 60.2832 90.3691 58.7793L90.5879 58.0137L85.2012 43.1523H88.4004L92.1191 55.0195H92.3789L96.084 43.1523H99.2012L93.6777 58.5742C92.4199 62.1289 90.916 63.2227 87.9082 63.2227Z" fill="white"/>
</svg>
