<svg width="113" height="59" viewBox="0 0 113 59" fill="none" xmlns="http://www.w3.org/2000/svg">
<path d="M14.5391 22V2.27148H18.0664L24.3555 18.0078H24.5742L30.8633 2.27148H34.3906V22H31.6016V7.52148H31.3965L25.5996 22H23.3301L17.5469 7.52148H17.3281V22H14.5391ZM44.7871 22.2871C40.4258 22.2871 37.7598 19.375 37.7598 14.5898V14.5625C37.7598 9.79102 40.4395 6.86523 44.7871 6.86523C49.1211 6.86523 51.8008 9.77734 51.8008 14.5625V14.5898C51.8008 19.375 49.1348 22.2871 44.7871 22.2871ZM44.7871 19.8125C47.3301 19.8125 48.7793 17.8711 48.7793 14.5898V14.5625C48.7793 11.2676 47.3301 9.33984 44.7871 9.33984C42.2305 9.33984 40.7949 11.2676 40.7949 14.5625V14.5898C40.7949 17.8848 42.2305 19.8125 44.7871 19.8125ZM62.7305 22.2461C60.6523 22.2461 59.0254 21.2891 58.1641 19.6621H57.9453V22H54.9785V1.32812H57.9453V9.50391H58.1641C58.957 7.9043 60.6934 6.89258 62.7305 6.89258C66.5039 6.89258 68.8828 9.85938 68.8828 14.5625V14.5898C68.8828 19.252 66.4766 22.2461 62.7305 22.2461ZM61.8965 19.7168C64.3711 19.7168 65.8613 17.7754 65.8613 14.5898V14.5625C65.8613 11.377 64.3711 9.43555 61.8965 9.43555C59.4219 9.43555 57.8906 11.3906 57.8906 14.5625V14.5898C57.8906 17.7617 59.4219 19.7168 61.8965 19.7168ZM73.4688 4.5C72.4434 4.5 71.6094 3.66602 71.6094 2.6543C71.6094 1.62891 72.4434 0.794922 73.4688 0.794922C74.4805 0.794922 75.3281 1.62891 75.3281 2.6543C75.3281 3.66602 74.4805 4.5 73.4688 4.5ZM71.9785 22V7.15234H74.9316V22H71.9785ZM78.8887 22V1.32812H81.8555V22H78.8887ZM92.0059 22.2871C87.6582 22.2871 85.0332 19.3203 85.0332 14.6172V14.6035C85.0332 9.96875 87.7129 6.86523 91.8555 6.86523C95.998 6.86523 98.541 9.85938 98.541 14.3164V15.3555H88.0137C88.0684 18.1992 89.627 19.8535 92.0742 19.8535C93.9746 19.8535 95.1094 18.9102 95.4648 18.1445L95.5195 18.0352L98.377 18.0215L98.3496 18.1445C97.8574 20.0996 95.8066 22.2871 92.0059 22.2871ZM91.8691 9.29883C89.8457 9.29883 88.3145 10.6797 88.0547 13.2363H95.6016C95.3691 10.584 93.8789 9.29883 91.8691 9.29883ZM0.287109 54V34.2715H7.9707C11.8398 34.2715 14.5195 36.8691 14.5195 40.7383V40.7656C14.5195 44.6211 11.8398 47.2598 7.9707 47.2598H3.34961V54H0.287109ZM7.20508 36.8555H3.34961V44.6895H7.20508C9.85742 44.6895 11.4023 43.2539 11.4023 40.7793V40.752C11.4023 38.291 9.85742 36.8555 7.20508 36.8555ZM21.1562 54.2461C18.3262 54.2461 16.2344 52.5234 16.2344 49.8301V49.8027C16.2344 47.1504 18.2305 45.6055 21.7715 45.3867L25.791 45.1543V43.8418C25.791 42.2148 24.7656 41.3125 22.7559 41.3125C21.1152 41.3125 20.0352 41.9141 19.6797 42.9668L19.666 43.0215H16.8086L16.8223 42.9258C17.1777 40.4922 19.5156 38.8652 22.8926 38.8652C26.625 38.8652 28.7305 40.7246 28.7305 43.8418V54H25.791V51.8945H25.5586C24.6836 53.3984 23.125 54.2461 21.1562 54.2461ZM19.1875 49.707C19.1875 51.0742 20.3496 51.8809 21.9492 51.8809C24.1641 51.8809 25.791 50.4316 25.791 48.5176V47.2461L22.168 47.4785C20.1172 47.6016 19.1875 48.3398 19.1875 49.6797V49.707ZM37.8145 54.2871C34.2324 54.2871 31.9629 52.6055 31.6758 50.1172V50.1035H34.6426L34.6562 50.1172C35.0254 51.2383 36.1055 51.9902 37.8691 51.9902C39.7012 51.9902 40.9727 51.1562 40.9727 49.9395V49.9121C40.9727 48.9824 40.2754 48.3535 38.5527 47.957L36.1875 47.4102C33.3848 46.7676 32.0859 45.4961 32.0859 43.3223V43.3086C32.0859 40.7246 34.4922 38.8652 37.8555 38.8652C41.2461 38.8652 43.4199 40.5605 43.6797 42.9805V42.9941H40.8496V42.9668C40.5625 41.9277 39.5098 41.1484 37.8418 41.1484C36.2148 41.1484 35.0391 41.9551 35.0391 43.1445V43.1719C35.0391 44.1016 35.7227 44.6758 37.3906 45.0723L39.7422 45.6055C42.5996 46.2754 43.9668 47.4922 43.9668 49.6387V49.666C43.9668 52.4141 41.3418 54.2871 37.8145 54.2871ZM52.1348 54.2871C48.5527 54.2871 46.2832 52.6055 45.9961 50.1172V50.1035H48.9629L48.9766 50.1172C49.3457 51.2383 50.4258 51.9902 52.1895 51.9902C54.0215 51.9902 55.293 51.1562 55.293 49.9395V49.9121C55.293 48.9824 54.5957 48.3535 52.873 47.957L50.5078 47.4102C47.7051 46.7676 46.4062 45.4961 46.4062 43.3223V43.3086C46.4062 40.7246 48.8125 38.8652 52.1758 38.8652C55.5664 38.8652 57.7402 40.5605 58 42.9805V42.9941H55.1699V42.9668C54.8828 41.9277 53.8301 41.1484 52.1621 41.1484C50.5352 41.1484 49.3594 41.9551 49.3594 43.1445V43.1719C49.3594 44.1016 50.043 44.6758 51.7109 45.0723L54.0625 45.6055C56.9199 46.2754 58.2871 47.4922 58.2871 49.6387V49.666C58.2871 52.4141 55.6621 54.2871 52.1348 54.2871ZM61.3281 58.9492V39.1523H64.2949V41.4902H64.5137C65.375 39.8633 67.002 38.8926 69.0801 38.8926C72.8262 38.8926 75.2324 41.8867 75.2324 46.5625V46.5898C75.2324 51.293 72.8535 54.2461 69.0801 54.2461C67.043 54.2461 65.3066 53.248 64.5137 51.6484H64.2949V58.9492H61.3281ZM68.2461 51.7168C70.7207 51.7168 72.2109 49.7754 72.2109 46.5898V46.5625C72.2109 43.3633 70.7207 41.4355 68.2461 41.4355C65.7715 41.4355 64.2402 43.3906 64.2402 46.5625V46.5898C64.2402 49.7617 65.7715 51.7168 68.2461 51.7168ZM84.5898 54.2871C80.2285 54.2871 77.5625 51.375 77.5625 46.5898V46.5625C77.5625 41.791 80.2422 38.8652 84.5898 38.8652C88.9238 38.8652 91.6035 41.7773 91.6035 46.5625V46.5898C91.6035 51.375 88.9375 54.2871 84.5898 54.2871ZM84.5898 51.8125C87.1328 51.8125 88.582 49.8711 88.582 46.5898V46.5625C88.582 43.2676 87.1328 41.3398 84.5898 41.3398C82.0332 41.3398 80.5977 43.2676 80.5977 46.5625V46.5898C80.5977 49.8848 82.0332 51.8125 84.5898 51.8125ZM94.6445 54V39.1523H97.6113V41.3945H97.8301C98.3633 39.8223 99.7441 38.8926 101.727 38.8926C102.205 38.8926 102.725 38.9609 103.025 39.0293V41.7637C102.492 41.6543 101.986 41.5859 101.426 41.5859C99.1562 41.5859 97.6113 42.9805 97.6113 45.127V54H94.6445ZM111.262 54.0957C107.994 54.0957 106.654 52.9473 106.654 50.0898V41.4902H104.33V39.1523H106.654V35.4062H109.676V39.1523H112.861V41.4902H109.676V49.3789C109.676 50.9785 110.277 51.6348 111.74 51.6348C112.191 51.6348 112.451 51.6211 112.861 51.5801V53.9453C112.383 54.0273 111.836 54.0957 111.262 54.0957Z" fill="white"/>
</svg>
