<svg width="107" height="21" viewBox="0 0 107 21" fill="none" xmlns="http://www.w3.org/2000/svg">
<path d="M0.332031 20V0.271484H3.09375L13.2383 14.627H13.4434V0.271484H16.4238V20H13.6621L3.53125 5.67188H3.3125V20H0.332031ZM20.8867 20V0.271484H23.9492V8.61133H34.0801V0.271484H37.1289V20H34.0801V11.2637H23.9492V20H20.8867ZM48.7344 20V0.271484H56.418C60.2871 0.271484 62.9668 2.86914 62.9668 6.73828V6.76562C62.9668 10.6211 60.2871 13.2598 56.418 13.2598H51.7969V20H48.7344ZM55.6523 2.85547H51.7969V10.6895H55.6523C58.3047 10.6895 59.8496 9.25391 59.8496 6.7793V6.75195C59.8496 4.29102 58.3047 2.85547 55.6523 2.85547ZM69.6035 20.2461C66.7734 20.2461 64.6816 18.5234 64.6816 15.8301V15.8027C64.6816 13.1504 66.6777 11.6055 70.2188 11.3867L74.2383 11.1543V9.8418C74.2383 8.21484 73.2129 7.3125 71.2031 7.3125C69.5625 7.3125 68.4824 7.91406 68.127 8.9668L68.1133 9.02148H65.2559L65.2695 8.92578C65.625 6.49219 67.9629 4.86523 71.3398 4.86523C75.0723 4.86523 77.1777 6.72461 77.1777 9.8418V20H74.2383V17.8945H74.0059C73.1309 19.3984 71.5723 20.2461 69.6035 20.2461ZM67.6348 15.707C67.6348 17.0742 68.7969 17.8809 70.3965 17.8809C72.6113 17.8809 74.2383 16.4316 74.2383 14.5176V13.2461L70.6152 13.4785C68.5645 13.6016 67.6348 14.3398 67.6348 15.6797V15.707ZM86.2617 20.2871C82.6797 20.2871 80.4102 18.6055 80.123 16.1172V16.1035H83.0898L83.1035 16.1172C83.4727 17.2383 84.5527 17.9902 86.3164 17.9902C88.1484 17.9902 89.4199 17.1562 89.4199 15.9395V15.9121C89.4199 14.9824 88.7227 14.3535 87 13.957L84.6348 13.4102C81.832 12.7676 80.5332 11.4961 80.5332 9.32227V9.30859C80.5332 6.72461 82.9395 4.86523 86.3027 4.86523C89.6934 4.86523 91.8672 6.56055 92.127 8.98047V8.99414H89.2969V8.9668C89.0098 7.92773 87.957 7.14844 86.2891 7.14844C84.6621 7.14844 83.4863 7.95508 83.4863 9.14453V9.17188C83.4863 10.1016 84.1699 10.6758 85.8379 11.0723L88.1895 11.6055C91.0469 12.2754 92.4141 13.4922 92.4141 15.6387V15.666C92.4141 18.4141 89.7891 20.2871 86.2617 20.2871ZM100.582 20.2871C97 20.2871 94.7305 18.6055 94.4434 16.1172V16.1035H97.4102L97.4238 16.1172C97.793 17.2383 98.873 17.9902 100.637 17.9902C102.469 17.9902 103.74 17.1562 103.74 15.9395V15.9121C103.74 14.9824 103.043 14.3535 101.32 13.957L98.9551 13.4102C96.1523 12.7676 94.8535 11.4961 94.8535 9.32227V9.30859C94.8535 6.72461 97.2598 4.86523 100.623 4.86523C104.014 4.86523 106.188 6.56055 106.447 8.98047V8.99414H103.617V8.9668C103.33 7.92773 102.277 7.14844 100.609 7.14844C98.9824 7.14844 97.8066 7.95508 97.8066 9.14453V9.17188C97.8066 10.1016 98.4902 10.6758 100.158 11.0723L102.51 11.6055C105.367 12.2754 106.734 13.4922 106.734 15.6387V15.666C106.734 18.4141 104.109 20.2871 100.582 20.2871Z" fill="white"/>
</svg>
