<svg width="129" height="27" viewBox="0 0 129 27" fill="none" xmlns="http://www.w3.org/2000/svg">
<path d="M5.51494 5.184V12.688H17.5549V5.184H5.51494ZM12.9909 20.696H23.0429V23.048H0.138938V20.696H10.1069V14.984H2.68694V2.888H20.3829V14.984H12.9909V20.696ZM35.4208 17.868V11.68H29.1488V17.868H35.4208ZM35.4208 9.384V2.944H38.2768V20.192H26.2648V2.944H29.1488V9.384H35.4208ZM48.9168 10.588V12.996H44.9688V26.184H42.0848V0.871999H44.9688V10.588H48.9168ZM71.4866 0.843999V13.696H68.6026V0.843999H71.4866ZM53.9306 7.396C53.9306 9.412 55.5546 10.728 57.7386 10.728C59.9506 10.728 61.6026 9.412 61.6026 7.396C61.6026 5.38 59.9506 4.064 57.7386 4.064C55.5546 4.064 53.9306 5.38 53.9306 7.396ZM64.4026 7.396C64.4026 10.728 61.5746 13.08 57.7386 13.08C53.9306 13.08 51.1306 10.728 51.1306 7.396C51.1306 4.064 53.9306 1.684 57.7386 1.684C61.5746 1.684 64.4026 4.064 64.4026 7.396ZM57.7946 23.58H72.2426V25.848H54.9666V19.212H68.6306V17.112H54.9106V14.844H71.4866V21.34H57.7946V23.58ZM94.6934 14.228H99.7894V8.684H94.6094C94.8054 9.608 94.9174 10.56 94.9174 11.624C94.9174 12.576 94.8334 13.416 94.6934 14.228ZM88.5054 17.98C90.6894 17.98 92.1734 15.6 92.1734 11.624C92.1734 7.704 90.6894 5.324 88.5054 5.324C86.3494 5.324 84.8374 7.704 84.8374 11.624C84.8374 15.6 86.3494 17.98 88.5054 17.98ZM99.7894 0.843999H102.701V26.212H99.7894V16.608H93.9654C92.9014 19.1 90.9134 20.556 88.5054 20.556C84.7814 20.556 82.1214 17.112 82.1214 11.624C82.1214 6.192 84.7814 2.72 88.5054 2.72C90.8014 2.72 92.6774 4.036 93.8254 6.304H99.7894V0.843999ZM119.895 14.536H125.159V0.871999H128.043V19.968H125.159V16.804H119.895V14.536ZM113.679 18.344V12.856C111.355 12.968 109.115 12.996 107.155 12.996L106.763 10.7C109.899 10.672 113.735 10.644 117.515 10.392C117.935 7.928 118.047 6.024 118.103 4.624H109.087V2.272H120.959V3.224C120.959 4.596 120.959 6.948 120.455 10.168C121.323 10.084 122.219 9.972 123.087 9.86L123.311 11.904C121.099 12.296 118.803 12.548 116.563 12.716V18.344H113.679ZM113.259 23.328H128.631V25.68H110.375V17.952H113.259V23.328Z" fill="white"/>
</svg>
